<?xml version="1.0" encoding="UTF-8"?>
<svg id="Vrstva_1" data-name="Vrstva 1" xmlns="http://www.w3.org/2000/svg" viewBox="0 0 1417.32 1417.32">
  <path d="M0,725.95h691.38v691.38H0v-691.38h0ZM423.16,920.63v171.36c0,37.27-6.14,62.45-18.43,75.55-12.29,13.1-32.88,19.65-61.78,19.65-16.88,0-31.16-3.31-42.84-9.92-11.68-6.62-19.92-16.04-24.71-28.26-4.79-12.22-7.19-31.23-7.19-57.02v-171.36h-39.3v171.56c0,31.46,3.78,56.27,11.34,74.44,7.56,18.16,20.19,32.04,37.88,41.62,17.69,9.59,40.44,14.38,68.26,14.38s51.75-5.5,69.37-16.51c17.62-11,29.81-25.28,36.56-42.84,6.75-17.55,10.13-41.25,10.13-71.09v-171.56h-39.3Z" style="fill: #007ec7; fill-rule: evenodd;"/>
  <path d="M725.95,0h691.38v691.38h-691.38V0h0ZM932.68,494.16h41.73l32.61-89.93h124.16l34.64,89.93h44.77l-121.53-296.94h-42.33l-114.04,296.94h0ZM1018.36,372.22h100.67l-30.99-82.24c-9.45-24.98-16.47-45.51-21.06-61.58-3.78,19.04-9.12,37.95-16,56.72l-32.61,87.1Z" style="fill: #007ec7; fill-rule: evenodd;"/>
  <path d="M345.69,0C154.77,0,0,154.77,0,345.69v345.69h691.38V0h-345.69ZM203.7,349.64c0-49.29,13.23-87.87,39.7-115.76,26.47-27.88,60.63-41.83,102.49-41.83,27.41,0,52.12,6.55,74.13,19.65,22.01,13.1,38.79,31.36,50.33,54.79,11.55,23.43,17.32,50,17.32,79.7s-6.08,57.05-18.23,80.82c-12.15,23.77-29.37,41.76-51.65,53.98-22.28,12.22-46.32,18.33-72.11,18.33-27.95,0-52.93-6.75-74.94-20.26-22.01-13.5-38.69-31.94-50.03-55.3-11.34-23.36-17.01-48.07-17.01-74.14h0ZM244.21,350.25c0-44.7,10.03-76.6,30.08-95.7,20.05-19.11,43.99-28.66,71.81-28.66,19.58,0,37.24,4.96,52.97,14.89,15.73,9.92,27.68,23.9,35.85,41.93,8.17,18.03,12.25,39.12,12.25,63.3,0,38.21-9.55,67.72-28.66,88.51-19.11,20.79-43.45,31.19-73.02,31.19s-53.17-10.3-72.41-30.89c-19.24-20.59-28.86-48.78-28.86-84.56Z" style="fill: #007ec7; fill-rule: evenodd;"/>
  <path d="M1071.64,1417.32c190.92,0,345.69-154.77,345.69-345.69v-345.69h-691.38v691.38h345.69ZM955.17,1220.1v-296.94h39.3v121.93h154.34v-121.93h39.3v296.94h-39.3v-139.96h-154.34v139.96h-39.3Z" style="fill: #007ec7; fill-rule: evenodd;"/>
</svg>