<svg id="visual" viewBox="0 0 900 600" width="900" height="600" xmlns="http://www.w3.org/2000/svg" xmlns:xlink="http://www.w3.org/1999/xlink" version="1.1"><g stroke-width="1" stroke-linejoin="bevel"><path d="M436.6 304.3L453.4 325.3L444.4 264.7Z" fill="#c7c7c7" stroke="#c7c7c7"></path><path d="M453.4 325.3L474.6 240.7L444.4 264.7Z" fill="#f8f8f8" stroke="#f8f8f8"></path><path d="M453.4 325.3L565.8 265.7L474.6 240.7Z" fill="#dddddd" stroke="#dddddd"></path><path d="M565.8 265.7L530.6 211L474.6 240.7Z" fill="#ededed" stroke="#ededed"></path><path d="M453.4 325.3L566.8 355.3L565.8 265.7Z" fill="#f2f2f2" stroke="#f2f2f2"></path><path d="M530.6 211L496.6 180.3L474.6 240.7Z" fill="#cccccc" stroke="#cccccc"></path><path d="M420.4 181L365.2 248.7L444.4 264.7Z" fill="#c7c7c7" stroke="#c7c7c7"></path><path d="M398.4 431L494.6 404L453.4 325.3Z" fill="#ededed" stroke="#ededed"></path><path d="M453.4 325.3L494.6 404L566.8 355.3Z" fill="#fdfdfd" stroke="#fdfdfd"></path><path d="M420.4 181L444.4 264.7L474.6 240.7Z" fill="#e7e7e7" stroke="#e7e7e7"></path><path d="M444.4 264.7L365.2 248.7L436.6 304.3Z" fill="#dddddd" stroke="#dddddd"></path><path d="M436.6 304.3L398.4 431L453.4 325.3Z" fill="#cccccc" stroke="#cccccc"></path><path d="M496.6 180.3L420.4 181L474.6 240.7Z" fill="#cccccc" stroke="#cccccc"></path><path d="M573.1 179L569.8 179L530.6 211Z" fill="#f8f8f8" stroke="#f8f8f8"></path><path d="M530.6 211L569.8 179L496.6 180.3Z" fill="#d7d7d7" stroke="#d7d7d7"></path><path d="M496.6 180.3L454.4 88.7L420.4 181Z" fill="#fdfdfd" stroke="#fdfdfd"></path><path d="M573.1 179L530.6 211L565.8 265.7Z" fill="#cccccc" stroke="#cccccc"></path><path d="M706.3 241L573.1 179L565.8 265.7Z" fill="#d2d2d2" stroke="#d2d2d2"></path><path d="M604.1 379.3L629.1 314.7L566.8 355.3Z" fill="#dddddd" stroke="#dddddd"></path><path d="M566.8 355.3L629.1 314.7L565.8 265.7Z" fill="#f2f2f2" stroke="#f2f2f2"></path><path d="M567.8 427L604.1 379.3L566.8 355.3Z" fill="#fdfdfd" stroke="#fdfdfd"></path><path d="M305.2 348.3L398.4 431L436.6 304.3Z" fill="#f8f8f8" stroke="#f8f8f8"></path><path d="M494.6 404L567.8 427L566.8 355.3Z" fill="#d7d7d7" stroke="#d7d7d7"></path><path d="M513.6 538.3L567.8 427L494.6 404Z" fill="#e7e7e7" stroke="#e7e7e7"></path><path d="M365.2 248.7L305.2 348.3L436.6 304.3Z" fill="#c7c7c7" stroke="#c7c7c7"></path><path d="M604.1 379.3L644.1 350L629.1 314.7Z" fill="#d2d2d2" stroke="#d2d2d2"></path><path d="M596.1 105.3L569.8 138.3L573.1 179Z" fill="#c7c7c7" stroke="#c7c7c7"></path><path d="M620.1 428.7L644.1 350L604.1 379.3Z" fill="#e7e7e7" stroke="#e7e7e7"></path><path d="M692.3 283.7L565.8 265.7L629.1 314.7Z" fill="#ededed" stroke="#ededed"></path><path d="M573.1 179L569.8 138.3L569.8 179Z" fill="#fdfdfd" stroke="#fdfdfd"></path><path d="M569.8 179L569.8 138.3L496.6 180.3Z" fill="#ededed" stroke="#ededed"></path><path d="M350.2 433L385.4 452.7L398.4 431Z" fill="#dddddd" stroke="#dddddd"></path><path d="M398.4 431L439.6 495.7L494.6 404Z" fill="#cccccc" stroke="#cccccc"></path><path d="M305.2 348.3L350.2 433L398.4 431Z" fill="#ededed" stroke="#ededed"></path><path d="M385.2 95.3L333.2 157L420.4 181Z" fill="#f2f2f2" stroke="#f2f2f2"></path><path d="M420.4 181L333.2 157L365.2 248.7Z" fill="#ededed" stroke="#ededed"></path><path d="M365.2 248.7L276.9 323.3L305.2 348.3Z" fill="#d2d2d2" stroke="#d2d2d2"></path><path d="M601.8 462.7L620.1 428.7L567.8 427Z" fill="#c7c7c7" stroke="#c7c7c7"></path><path d="M567.8 427L620.1 428.7L604.1 379.3Z" fill="#e2e2e2" stroke="#e2e2e2"></path><path d="M252.7 241L276.9 323.3L365.2 248.7Z" fill="#e7e7e7" stroke="#e7e7e7"></path><path d="M305.2 348.3L262.9 438.7L350.2 433Z" fill="#cccccc" stroke="#cccccc"></path><path d="M505.8 57.7L454.4 88.7L496.6 180.3Z" fill="#f8f8f8" stroke="#f8f8f8"></path><path d="M454.4 88.7L433.4 90.3L420.4 181Z" fill="#dddddd" stroke="#dddddd"></path><path d="M247.9 132.3L305.9 173L333.2 157Z" fill="#e2e2e2" stroke="#e2e2e2"></path><path d="M333.2 157L305.9 173L365.2 248.7Z" fill="#d7d7d7" stroke="#d7d7d7"></path><path d="M379.2 488.7L439.6 495.7L385.4 452.7Z" fill="#e2e2e2" stroke="#e2e2e2"></path><path d="M385.4 452.7L439.6 495.7L398.4 431Z" fill="#d2d2d2" stroke="#d2d2d2"></path><path d="M513.6 538.3L601.8 462.7L567.8 427Z" fill="#d7d7d7" stroke="#d7d7d7"></path><path d="M433.4 90.3L385.2 95.3L420.4 181Z" fill="#f8f8f8" stroke="#f8f8f8"></path><path d="M713.5 311.7L692.3 283.7L644.1 350Z" fill="#d7d7d7" stroke="#d7d7d7"></path><path d="M644.1 350L692.3 283.7L629.1 314.7Z" fill="#fdfdfd" stroke="#fdfdfd"></path><path d="M350.2 433L379.2 488.7L385.4 452.7Z" fill="#ededed" stroke="#ededed"></path><path d="M262.9 438.7L379.2 488.7L350.2 433Z" fill="#ededed" stroke="#ededed"></path><path d="M252.7 241L256.7 323.3L276.9 323.3Z" fill="#cccccc" stroke="#cccccc"></path><path d="M276.9 323.3L256.7 323.3L305.2 348.3Z" fill="#d7d7d7" stroke="#d7d7d7"></path><path d="M733.3 117.3L596.1 105.3L573.1 179Z" fill="#d7d7d7" stroke="#d7d7d7"></path><path d="M569.8 138.3L505.8 57.7L496.6 180.3Z" fill="#c7c7c7" stroke="#c7c7c7"></path><path d="M305.9 173L252.7 241L365.2 248.7Z" fill="#e7e7e7" stroke="#e7e7e7"></path><path d="M723.5 346.3L694.3 359L750.5 390Z" fill="#d7d7d7" stroke="#d7d7d7"></path><path d="M620.1 428.7L694.3 359L644.1 350Z" fill="#d2d2d2" stroke="#d2d2d2"></path><path d="M596.1 105.3L505.8 57.7L569.8 138.3Z" fill="#e7e7e7" stroke="#e7e7e7"></path><path d="M454.4 88.7L446.6 52.7L433.4 90.3Z" fill="#e7e7e7" stroke="#e7e7e7"></path><path d="M433.4 90.3L446.6 52.7L385.2 95.3Z" fill="#e2e2e2" stroke="#e2e2e2"></path><path d="M379.2 488.7L454.4 526.3L439.6 495.7Z" fill="#e7e7e7" stroke="#e7e7e7"></path><path d="M439.6 495.7L513.6 538.3L494.6 404Z" fill="#d2d2d2" stroke="#d2d2d2"></path><path d="M713.5 311.7L706.3 241L692.3 283.7Z" fill="#cccccc" stroke="#cccccc"></path><path d="M692.3 283.7L706.3 241L565.8 265.7Z" fill="#d7d7d7" stroke="#d7d7d7"></path><path d="M694.3 359L713.5 311.7L644.1 350Z" fill="#ededed" stroke="#ededed"></path><path d="M505.8 57.7L446.6 52.7L454.4 88.7Z" fill="#d7d7d7" stroke="#d7d7d7"></path><path d="M305.9 173L233.9 234.7L252.7 241Z" fill="#dddddd" stroke="#dddddd"></path><path d="M252.7 241L214.7 281.7L256.7 323.3Z" fill="#cccccc" stroke="#cccccc"></path><path d="M247.9 132.3L233.9 234.7L305.9 173Z" fill="#e2e2e2" stroke="#e2e2e2"></path><path d="M454.4 526.3L513.6 538.3L439.6 495.7Z" fill="#c7c7c7" stroke="#c7c7c7"></path><path d="M374.4 0L325.2 84.7L385.2 95.3Z" fill="#cccccc" stroke="#cccccc"></path><path d="M385.2 95.3L325.2 84.7L333.2 157Z" fill="#fdfdfd" stroke="#fdfdfd"></path><path d="M665.3 470.7L694.3 359L620.1 428.7Z" fill="#dddddd" stroke="#dddddd"></path><path d="M694.3 359L723.5 346.3L713.5 311.7Z" fill="#e2e2e2" stroke="#e2e2e2"></path><path d="M713.5 311.7L756.5 220L706.3 241Z" fill="#f8f8f8" stroke="#f8f8f8"></path><path d="M257.9 441L262.9 438.7L184.7 354Z" fill="#f8f8f8" stroke="#f8f8f8"></path><path d="M256.7 323.3L262.9 438.7L305.2 348.3Z" fill="#e7e7e7" stroke="#e7e7e7"></path><path d="M379.2 488.7L364.2 569.3L454.4 526.3Z" fill="#f2f2f2" stroke="#f2f2f2"></path><path d="M233.9 234.7L214.7 281.7L252.7 241Z" fill="#c7c7c7" stroke="#c7c7c7"></path><path d="M657.1 511.3L665.3 470.7L601.8 462.7Z" fill="#cccccc" stroke="#cccccc"></path><path d="M601.8 462.7L665.3 470.7L620.1 428.7Z" fill="#d2d2d2" stroke="#d2d2d2"></path><path d="M184.7 354L262.9 438.7L256.7 323.3Z" fill="#d2d2d2" stroke="#d2d2d2"></path><path d="M243.9 546.3L364.2 569.3L379.2 488.7Z" fill="#e2e2e2" stroke="#e2e2e2"></path><path d="M750.5 390L734.3 341.3L723.5 346.3Z" fill="#d2d2d2" stroke="#d2d2d2"></path><path d="M723.5 346.3L734.3 341.3L713.5 311.7Z" fill="#f2f2f2" stroke="#f2f2f2"></path><path d="M513.6 538.3L575.8 543.3L601.8 462.7Z" fill="#dddddd" stroke="#dddddd"></path><path d="M325.2 84.7L247.9 132.3L333.2 157Z" fill="#f2f2f2" stroke="#f2f2f2"></path><path d="M233.9 234.7L157.5 217L214.7 281.7Z" fill="#dddddd" stroke="#dddddd"></path><path d="M733.3 117.3L647.3 73.7L596.1 105.3Z" fill="#c7c7c7" stroke="#c7c7c7"></path><path d="M596.1 105.3L556.8 0L505.8 57.7Z" fill="#d7d7d7" stroke="#d7d7d7"></path><path d="M575.8 543.3L657.1 511.3L601.8 462.7Z" fill="#f8f8f8" stroke="#f8f8f8"></path><path d="M665.3 470.7L750.5 390L694.3 359Z" fill="#d2d2d2" stroke="#d2d2d2"></path><path d="M734.3 341.3L756.5 220L713.5 311.7Z" fill="#e2e2e2" stroke="#e2e2e2"></path><path d="M706.3 241L733.3 117.3L573.1 179Z" fill="#d2d2d2" stroke="#d2d2d2"></path><path d="M556.8 0L490.6 0L505.8 57.7Z" fill="#f8f8f8" stroke="#f8f8f8"></path><path d="M505.8 57.7L490.6 0L446.6 52.7Z" fill="#e7e7e7" stroke="#e7e7e7"></path><path d="M446.6 52.7L382.2 0L385.2 95.3Z" fill="#f8f8f8" stroke="#f8f8f8"></path><path d="M791.5 461.7L750.5 390L665.3 470.7Z" fill="#e7e7e7" stroke="#e7e7e7"></path><path d="M734.3 341.3L867.8 255.7L756.5 220Z" fill="#fdfdfd" stroke="#fdfdfd"></path><path d="M157.5 314.3L184.7 354L214.7 281.7Z" fill="#dddddd" stroke="#dddddd"></path><path d="M214.7 281.7L184.7 354L256.7 323.3Z" fill="#c7c7c7" stroke="#c7c7c7"></path><path d="M243.9 546.3L379.2 488.7L262.9 438.7Z" fill="#d7d7d7" stroke="#d7d7d7"></path><path d="M454.4 526.3L476.6 600L513.6 538.3Z" fill="#ededed" stroke="#ededed"></path><path d="M513.6 538.3L560.8 600L575.8 543.3Z" fill="#d2d2d2" stroke="#d2d2d2"></path><path d="M243.9 546.3L262.9 438.7L257.9 441Z" fill="#fdfdfd" stroke="#fdfdfd"></path><path d="M654.1 0L610.1 22.7L647.3 73.7Z" fill="#f8f8f8" stroke="#f8f8f8"></path><path d="M647.3 73.7L610.1 22.7L596.1 105.3Z" fill="#ededed" stroke="#ededed"></path><path d="M610.1 22.7L556.8 0L596.1 105.3Z" fill="#d2d2d2" stroke="#d2d2d2"></path><path d="M490.6 0L382.2 0L446.6 52.7Z" fill="#ededed" stroke="#ededed"></path><path d="M325.2 84.7L234.9 64.7L247.9 132.3Z" fill="#c7c7c7" stroke="#c7c7c7"></path><path d="M382.2 0L374.4 0L385.2 95.3Z" fill="#fdfdfd" stroke="#fdfdfd"></path><path d="M450.4 600L476.6 600L454.4 526.3Z" fill="#fdfdfd" stroke="#fdfdfd"></path><path d="M575.8 543.3L667.1 600L657.1 511.3Z" fill="#fdfdfd" stroke="#fdfdfd"></path><path d="M364.2 569.3L450.4 600L454.4 526.3Z" fill="#d7d7d7" stroke="#d7d7d7"></path><path d="M756.5 220L733.3 117.3L706.3 241Z" fill="#d7d7d7" stroke="#d7d7d7"></path><path d="M234.9 64.7L188.7 159.3L247.9 132.3Z" fill="#ededed" stroke="#ededed"></path><path d="M247.9 132.3L188.7 159.3L233.9 234.7Z" fill="#cccccc" stroke="#cccccc"></path><path d="M132.5 271.7L157.5 314.3L214.7 281.7Z" fill="#dddddd" stroke="#dddddd"></path><path d="M189.7 494.7L219.7 484.3L184.7 354Z" fill="#dddddd" stroke="#dddddd"></path><path d="M184.7 354L219.7 484.3L257.9 441Z" fill="#f2f2f2" stroke="#f2f2f2"></path><path d="M476.6 600L560.8 600L513.6 538.3Z" fill="#d7d7d7" stroke="#d7d7d7"></path><path d="M791.5 461.7L784.8 373L750.5 390Z" fill="#e2e2e2" stroke="#e2e2e2"></path><path d="M750.5 390L784.8 373L734.3 341.3Z" fill="#d2d2d2" stroke="#d2d2d2"></path><path d="M188.7 159.3L157.5 217L233.9 234.7Z" fill="#cccccc" stroke="#cccccc"></path><path d="M229.7 57.7L234.9 64.7L227.9 0Z" fill="#e7e7e7" stroke="#e7e7e7"></path><path d="M188.7 159.3L94.2 155L157.5 217Z" fill="#f2f2f2" stroke="#f2f2f2"></path><path d="M667.1 600L716.3 519.3L657.1 511.3Z" fill="#e7e7e7" stroke="#e7e7e7"></path><path d="M657.1 511.3L716.3 519.3L665.3 470.7Z" fill="#d2d2d2" stroke="#d2d2d2"></path><path d="M227.9 0L234.9 64.7L325.2 84.7Z" fill="#d2d2d2" stroke="#d2d2d2"></path><path d="M234.9 64.7L127.5 92.3L188.7 159.3Z" fill="#d2d2d2" stroke="#d2d2d2"></path><path d="M115.2 297.7L140.5 363L157.5 314.3Z" fill="#f8f8f8" stroke="#f8f8f8"></path><path d="M157.5 314.3L140.5 363L184.7 354Z" fill="#fdfdfd" stroke="#fdfdfd"></path><path d="M740.3 0L654.1 0L647.3 73.7Z" fill="#dddddd" stroke="#dddddd"></path><path d="M610.1 22.7L654.1 0L556.8 0Z" fill="#e2e2e2" stroke="#e2e2e2"></path><path d="M294.9 600L326.2 600L364.2 569.3Z" fill="#d2d2d2" stroke="#d2d2d2"></path><path d="M364.2 569.3L326.2 600L450.4 600Z" fill="#e2e2e2" stroke="#e2e2e2"></path><path d="M115.2 297.7L0 263.7L0 304.3Z" fill="#fdfdfd" stroke="#fdfdfd"></path><path d="M157.5 217L132.5 271.7L214.7 281.7Z" fill="#f2f2f2" stroke="#f2f2f2"></path><path d="M189.7 494.7L243.9 546.3L219.7 484.3Z" fill="#f8f8f8" stroke="#f8f8f8"></path><path d="M219.7 484.3L243.9 546.3L257.9 441Z" fill="#dddddd" stroke="#dddddd"></path><path d="M140.5 363L189.7 494.7L184.7 354Z" fill="#e2e2e2" stroke="#e2e2e2"></path><path d="M177.5 600L294.9 600L243.9 546.3Z" fill="#d7d7d7" stroke="#d7d7d7"></path><path d="M243.9 546.3L294.9 600L364.2 569.3Z" fill="#cccccc" stroke="#cccccc"></path><path d="M132.5 271.7L115.2 297.7L157.5 314.3Z" fill="#f8f8f8" stroke="#f8f8f8"></path><path d="M140.5 363L135.5 495.3L189.7 494.7Z" fill="#cccccc" stroke="#cccccc"></path><path d="M94.2 155L132.5 271.7L157.5 217Z" fill="#cccccc" stroke="#cccccc"></path><path d="M716.3 519.3L791.5 461.7L665.3 470.7Z" fill="#fdfdfd" stroke="#fdfdfd"></path><path d="M560.8 600L667.1 600L575.8 543.3Z" fill="#e7e7e7" stroke="#e7e7e7"></path><path d="M716.3 519.3L790.5 503.3L791.5 461.7Z" fill="#e7e7e7" stroke="#e7e7e7"></path><path d="M791.5 461.7L840.8 371.3L784.8 373Z" fill="#fdfdfd" stroke="#fdfdfd"></path><path d="M867.8 255.7L862.8 220L756.5 220Z" fill="#d7d7d7" stroke="#d7d7d7"></path><path d="M756.5 220L808.5 119.3L733.3 117.3Z" fill="#cccccc" stroke="#cccccc"></path><path d="M859.8 149.3L808.5 119.3L756.5 220Z" fill="#ededed" stroke="#ededed"></path><path d="M733.3 117.3L740.3 0L647.3 73.7Z" fill="#dddddd" stroke="#dddddd"></path><path d="M783.8 600L790.5 503.3L716.3 519.3Z" fill="#cccccc" stroke="#cccccc"></path><path d="M900 447.7L900 355L840.8 371.3Z" fill="#dddddd" stroke="#dddddd"></path><path d="M374.4 0L227.9 0L325.2 84.7Z" fill="#dddddd" stroke="#dddddd"></path><path d="M229.7 57.7L127.5 92.3L234.9 64.7Z" fill="#e2e2e2" stroke="#e2e2e2"></path><path d="M667.1 600L699.3 600L716.3 519.3Z" fill="#f2f2f2" stroke="#f2f2f2"></path><path d="M801.5 69.7L740.3 0L733.3 117.3Z" fill="#dddddd" stroke="#dddddd"></path><path d="M867.8 255.7L734.3 341.3L784.8 373Z" fill="#d2d2d2" stroke="#d2d2d2"></path><path d="M840.8 371.3L867.8 255.7L784.8 373Z" fill="#f8f8f8" stroke="#f8f8f8"></path><path d="M860.8 89.7L801.5 69.7L808.5 119.3Z" fill="#e7e7e7" stroke="#e7e7e7"></path><path d="M808.5 119.3L801.5 69.7L733.3 117.3Z" fill="#f2f2f2" stroke="#f2f2f2"></path><path d="M84.2 447L135.5 495.3L140.5 363Z" fill="#fdfdfd" stroke="#fdfdfd"></path><path d="M189.7 494.7L177.5 600L243.9 546.3Z" fill="#d7d7d7" stroke="#d7d7d7"></path><path d="M120.5 64.7L127.5 92.3L229.7 57.7Z" fill="#f8f8f8" stroke="#f8f8f8"></path><path d="M127.5 92.3L94.2 155L188.7 159.3Z" fill="#d7d7d7" stroke="#d7d7d7"></path><path d="M40.2 362.3L84.2 447L140.5 363Z" fill="#c7c7c7" stroke="#c7c7c7"></path><path d="M900 184L859.8 149.3L862.8 220Z" fill="#f8f8f8" stroke="#f8f8f8"></path><path d="M862.8 220L859.8 149.3L756.5 220Z" fill="#d7d7d7" stroke="#d7d7d7"></path><path d="M40.2 362.3L140.5 363L115.2 297.7Z" fill="#c7c7c7" stroke="#c7c7c7"></path><path d="M163.7 0L120.5 64.7L229.7 57.7Z" fill="#d2d2d2" stroke="#d2d2d2"></path><path d="M127.5 92.3L80.2 98.3L94.2 155Z" fill="#ededed" stroke="#ededed"></path><path d="M227.9 0L163.7 0L229.7 57.7Z" fill="#d7d7d7" stroke="#d7d7d7"></path><path d="M900 355L900 330.3L840.8 371.3Z" fill="#f8f8f8" stroke="#f8f8f8"></path><path d="M840.8 371.3L900 330.3L867.8 255.7Z" fill="#e7e7e7" stroke="#e7e7e7"></path><path d="M867.8 255.7L900 231.7L862.8 220Z" fill="#e7e7e7" stroke="#e7e7e7"></path><path d="M176.7 600L189.7 494.7L135.5 495.3Z" fill="#e2e2e2" stroke="#e2e2e2"></path><path d="M176.7 600L177.5 600L189.7 494.7Z" fill="#fdfdfd" stroke="#fdfdfd"></path><path d="M103.2 582.3L176.7 600L135.5 495.3Z" fill="#fdfdfd" stroke="#fdfdfd"></path><path d="M900 330.3L900 231.7L867.8 255.7Z" fill="#dddddd" stroke="#dddddd"></path><path d="M900 447.7L840.8 371.3L791.5 461.7Z" fill="#dddddd" stroke="#dddddd"></path><path d="M84.2 447L101.5 505.7L135.5 495.3Z" fill="#d7d7d7" stroke="#d7d7d7"></path><path d="M859.8 149.3L860.8 89.7L808.5 119.3Z" fill="#d7d7d7" stroke="#d7d7d7"></path><path d="M801.5 69.7L801.5 0L740.3 0Z" fill="#e2e2e2" stroke="#e2e2e2"></path><path d="M900 128.3L860.8 89.7L859.8 149.3Z" fill="#e7e7e7" stroke="#e7e7e7"></path><path d="M699.3 600L783.8 600L716.3 519.3Z" fill="#e7e7e7" stroke="#e7e7e7"></path><path d="M790.5 503.3L866.8 498.7L791.5 461.7Z" fill="#d2d2d2" stroke="#d2d2d2"></path><path d="M856.8 0L801.5 0L801.5 69.7Z" fill="#e7e7e7" stroke="#e7e7e7"></path><path d="M900 231.7L900 184L862.8 220Z" fill="#fdfdfd" stroke="#fdfdfd"></path><path d="M120.5 64.7L80.2 98.3L127.5 92.3Z" fill="#c7c7c7" stroke="#c7c7c7"></path><path d="M0 304.3L40.2 362.3L115.2 297.7Z" fill="#c7c7c7" stroke="#c7c7c7"></path><path d="M40.2 75.7L80.2 98.3L120.5 64.7Z" fill="#c7c7c7" stroke="#c7c7c7"></path><path d="M115.2 297.7L0 244L0 263.7Z" fill="#dddddd" stroke="#dddddd"></path><path d="M84.2 447L62.2 480.7L101.5 505.7Z" fill="#dddddd" stroke="#dddddd"></path><path d="M833.8 571.3L866.8 498.7L790.5 503.3Z" fill="#cccccc" stroke="#cccccc"></path><path d="M783.8 600L833.8 571.3L790.5 503.3Z" fill="#cccccc" stroke="#cccccc"></path><path d="M866.8 498.7L900 447.7L791.5 461.7Z" fill="#dddddd" stroke="#dddddd"></path><path d="M900 521.3L900 447.7L866.8 498.7Z" fill="#dddddd" stroke="#dddddd"></path><path d="M0 478.7L62.2 480.7L84.2 447Z" fill="#ededed" stroke="#ededed"></path><path d="M101.5 505.7L103.2 582.3L135.5 495.3Z" fill="#fdfdfd" stroke="#fdfdfd"></path><path d="M900 184L900 128.3L859.8 149.3Z" fill="#f8f8f8" stroke="#f8f8f8"></path><path d="M860.8 89.7L856.8 0L801.5 69.7Z" fill="#e2e2e2" stroke="#e2e2e2"></path><path d="M801.5 600L833.8 571.3L783.8 600Z" fill="#dddddd" stroke="#dddddd"></path><path d="M163.7 0L107.5 0L120.5 64.7Z" fill="#fdfdfd" stroke="#fdfdfd"></path><path d="M62.2 480.7L103.2 582.3L101.5 505.7Z" fill="#dddddd" stroke="#dddddd"></path><path d="M40.2 362.3L0 392L84.2 447Z" fill="#f8f8f8" stroke="#f8f8f8"></path><path d="M115.2 297.7L132.5 271.7L0 244Z" fill="#ededed" stroke="#ededed"></path><path d="M132.5 271.7L94.2 155L0 244Z" fill="#f8f8f8" stroke="#f8f8f8"></path><path d="M0 244L94.2 155L0 118.3Z" fill="#d2d2d2" stroke="#d2d2d2"></path><path d="M0 118.3L94.2 155L80.2 98.3Z" fill="#dddddd" stroke="#dddddd"></path><path d="M900 42.7L856.8 0L860.8 89.7Z" fill="#ededed" stroke="#ededed"></path><path d="M900 600L900 521.3L833.8 571.3Z" fill="#e2e2e2" stroke="#e2e2e2"></path><path d="M833.8 571.3L900 521.3L866.8 498.7Z" fill="#f8f8f8" stroke="#f8f8f8"></path><path d="M65.2 0L40.2 75.7L120.5 64.7Z" fill="#dddddd" stroke="#dddddd"></path><path d="M0 304.3L0 392L40.2 362.3Z" fill="#fdfdfd" stroke="#fdfdfd"></path><path d="M0 600L100.2 600L103.2 582.3Z" fill="#cccccc" stroke="#cccccc"></path><path d="M0 499.3L103.2 582.3L62.2 480.7Z" fill="#e2e2e2" stroke="#e2e2e2"></path><path d="M103.2 582.3L100.2 600L176.7 600Z" fill="#dddddd" stroke="#dddddd"></path><path d="M900 128.3L900 42.7L860.8 89.7Z" fill="#e7e7e7" stroke="#e7e7e7"></path><path d="M107.5 0L65.2 0L120.5 64.7Z" fill="#f2f2f2" stroke="#f2f2f2"></path><path d="M0 68.7L0 118.3L40.2 75.7Z" fill="#e2e2e2" stroke="#e2e2e2"></path><path d="M40.2 75.7L0 118.3L80.2 98.3Z" fill="#c7c7c7" stroke="#c7c7c7"></path><path d="M0 392L0 478.7L84.2 447Z" fill="#f8f8f8" stroke="#f8f8f8"></path><path d="M900 42.7L900 0L856.8 0Z" fill="#d7d7d7" stroke="#d7d7d7"></path><path d="M0 478.7L0 499.3L62.2 480.7Z" fill="#d2d2d2" stroke="#d2d2d2"></path><path d="M0 0L0 68.7L40.2 75.7Z" fill="#f8f8f8" stroke="#f8f8f8"></path><path d="M801.5 600L900 600L833.8 571.3Z" fill="#dddddd" stroke="#dddddd"></path><path d="M65.2 0L0 0L40.2 75.7Z" fill="#dddddd" stroke="#dddddd"></path><path d="M0 499.3L0 600L103.2 582.3Z" fill="#dddddd" stroke="#dddddd"></path></g></svg>